<?xml version="1.0" encoding="iso-8859-1"?>
<!-- Uploaded to: SVG Repo, www.svgrepo.com, Generator: SVG Repo Mixer Tools -->
<svg height="800px" width="800px" version="1.1" id="Layer_1" xmlns="http://www.w3.org/2000/svg" xmlns:xlink="http://www.w3.org/1999/xlink" 
	 viewBox="0 0 512 512" xml:space="preserve">
<circle style="fill:#FFDB2D;" cx="256" cy="256" r="256"/>
<path style="fill:#FFAF33;" d="M256,0v182.857h-36.571v54.857H256v36.571h18.286v54.857H256V512c141.385,0,256-114.615,256-256
	S397.385,0,256,0z"/>
<path style="fill:#FFEA8A;" d="M256,228.571c-10.083,0-18.286-8.203-18.286-18.286c0-10.083,8.203-18.286,18.286-18.286
	c10.083,0,18.286,8.203,18.286,18.286h54.857c0-30.634-18.939-56.912-45.714-67.787v-51.07h-54.857v51.07
	c-26.776,10.875-45.714,37.153-45.714,67.787c0,40.331,32.812,73.143,73.143,73.143c10.083,0,18.286,8.203,18.286,18.286
	S266.083,320,256,320c-10.083,0-18.286-8.203-18.286-18.286h-54.857c0,30.634,18.939,56.912,45.714,67.787v51.07h54.857v-51.07
	c26.776-10.875,45.714-37.153,45.714-67.787C329.143,261.383,296.331,228.571,256,228.571z"/>
</svg>