<?xml version="1.0" encoding="utf-8"?>

<!DOCTYPE svg PUBLIC "-//W3C//DTD SVG 1.1//EN" "http://www.w3.org/Graphics/SVG/1.1/DTD/svg11.dtd">
<!-- Uploaded to: SVG Repo, www.svgrepo.com, Generator: SVG Repo Mixer Tools -->
<svg version="1.1" id="_x32_" xmlns="http://www.w3.org/2000/svg" xmlns:xlink="http://www.w3.org/1999/xlink" 
	 width="800px" height="800px" viewBox="0 0 512 512"  xml:space="preserve">
<style type="text/css">
<![CDATA[
	.st0{fill:#000000;}
]]>
</style>
<g>
	<path class="st0" d="M234.57,374.46c14.281,0,58.859,0,58.859,0c11.828,0,21.406-9.578,21.406-21.391
		c0-11.828-9.578-21.406-21.406-21.406c-10.703,0-32.094,0-85.594,0c-53.516,0-70.453,22.297-89.188,41.031l-33.984,29.672
		c-2.203,1.922-3.469,4.688-3.469,7.625v98.641c0,1.313,0.766,2.516,1.969,3.063s2.609,0.359,3.609-0.516l65.672-56.297
		c2.313-1.969,5.406-2.797,8.391-2.266l102.344,18.609c7.141,1.297,14.484-0.344,20.422-4.531c0,0,130.625-90.828,140.266-98.859
		l0,0c9.188-8.438,9.094-20.672,0.641-29.875c-8.438-9.203-24.172-7.25-34.688,0.531c-9.625,8.016-75.359,51.219-75.359,51.219
		H234.57l-0.25,0.125c-4.203-0.141-7.5-3.672-7.375-7.875c0.156-4.203,3.688-7.5,7.875-7.359L234.57,374.46z"/>
	<path class="st0" d="M418.336,193.866C397.758,111.819,318.07,80.96,311.102,73.444l19.594-71.328c0,0-24.469-7.906-58.797,6.828
		c-43.641,18.734-67.953-5.156-67.953-5.156l21.547,70.781c-6.766,7.688-91.516,42.141-106.875,123.219
		c-7.797,41.094,3.422,92.531,39.25,127.516c12.953-4.984,29.078-8.219,49.969-8.219h85.594c19.844,0,35.984,16.141,35.984,35.984
		c0,0.906-0.125,1.797-0.188,2.688C407.258,328.663,432.555,250.429,418.336,193.866z M302.398,171.663l-3.422-1.438
		c-5.625-2.375-11.484-3.578-17.391-3.578c-17.125,0-32.828,9.922-40.375,25.109h57.063l-3.516,17.047H236.57
		c-0.063,0.969-0.109,1.953-0.109,2.938c0,2.438,0.219,4.922,0.625,7.406h55.563l-3.516,17.047h-45.406
		c8.281,12.875,22.375,20.672,37.859,20.672c5.25,0,10.5-0.969,15.625-2.875l4.094-1.516v23.969l-2.234,0.594
		c-5.766,1.563-11.641,2.344-17.484,2.344c-27.859,0-52.922-17.266-62.984-43.188h-14.406v-17.047h10.219
		c-0.313-2.609-0.469-5.031-0.469-7.406c0-0.969,0.031-1.969,0.078-2.938h-9.828v-17.047h12.844
		c8.734-28.156,34.953-47.641,64.547-47.641c7.844,0,15.578,1.375,22.969,4.078l2.438,0.906L302.398,171.663z"/>
</g>
</svg>