<?xml version="1.0" encoding="utf-8"?>
<!-- Uploaded to: SVG Repo, www.svgrepo.com, Generator: SVG Repo Mixer Tools -->
<svg width="800px" height="800px" viewBox="0 0 1024 1024" class="icon"  version="1.1" xmlns="http://www.w3.org/2000/svg"><path d="M876.191289 95.505067H166.024533a65.968356 65.968356 0 0 0-65.968355 65.968355v710.166756a65.968356 65.968356 0 0 0 65.968355 65.968355h710.166756a65.968356 65.968356 0 0 0 65.968355-65.968355V161.462044a65.956978 65.956978 0 0 0-65.968355-65.956977z" fill="#E6E6E6" /><path d="M187.676444 183.113956h666.862934v666.885688H187.676444z" fill="#47A7DD" /><path d="M714.888533 183.113956L287.095467 849.999644h-99.419023V712.931556l339.8656-529.8176zM854.528 183.113956v85.583644L481.632711 849.999644h-97.609955l427.804444-666.885688z" fill="#6AC7EF" /><path d="M534.345956 267.935289H398.449778v497.231644h110.193778v-142.791111h25.7024c97.883022 0 177.208889-79.36 177.208888-177.220266 0-97.883022-79.337244-177.220267-177.208888-177.220267z m75.081955 177.220267a80.452267 80.452267 0 0 1-80.452267 80.452266h-20.332088V364.691911h20.332088a80.463644 80.463644 0 0 1 80.452267 80.463645z" fill="#E6E6E6" /><path d="M873.801956 79.644444H168.402489C121.969778 79.644444 84.195556 117.418667 84.195556 163.851378v560.310044a15.860622 15.860622 0 1 0 31.721244 0V163.851378a52.565333 52.565333 0 0 1 52.485689-52.497067h705.399467a52.553956 52.553956 0 0 1 52.497066 52.497067V869.262222a52.553956 52.553956 0 0 1-52.497066 52.485689H168.402489a52.542578 52.542578 0 0 1-52.485689-52.485689v-90.339555c0-8.760889-7.099733-15.849244-15.860622-15.849245A15.837867 15.837867 0 0 0 84.195556 778.911289v90.339555c0 46.432711 37.774222 84.195556 84.206933 84.195556h705.399467c46.432711 0 84.206933-37.762844 84.206933-84.195556V163.851378C958.008889 117.418667 920.234667 79.644444 873.801956 79.644444z" fill="" /><path d="M685.374578 167.264711H187.665067c-8.760889 0-15.860622 7.099733-15.860623 15.860622v666.874311c0 8.760889 7.099733 15.860622 15.860623 15.860623h666.862933c8.760889 0 15.872-7.099733 15.872-15.860623V183.113956c0-8.760889-7.111111-15.860622-15.872-15.860623H740.158578a15.860622 15.860622 0 1 0 0 31.721245h98.531555v635.164444H203.525689V198.974578h481.860267a15.860622 15.860622 0 1 0-0.011378-31.709867z" fill="" /><path d="M398.4384 660.115911c-8.760889 0-15.860622 7.099733-15.860622 15.860622v89.201778c0 8.760889 7.099733 15.860622 15.860622 15.860622h110.205156c8.760889 0 15.849244-7.099733 15.849244-15.860622V638.225067h9.853156c106.450489 0 193.080889-86.596267 193.080888-193.069511 0-106.461867-86.619022-193.069511-193.080888-193.069512H398.4384c-8.760889 0-15.860622 7.099733-15.860622 15.860623v353.257244a15.872 15.872 0 1 0 31.721244 0V283.795911h120.046934c88.962844 0 161.359644 72.385422 161.359644 161.359645s-72.385422 161.359644-161.359644 161.359644h-25.7024c-8.760889 0-15.860622 7.099733-15.860623 15.860622v126.941867h-78.472533v-73.341156a15.872 15.872 0 0 0-15.872-15.860622z" fill="" /><path d="M508.643556 541.468444h20.332088c53.100089 0 96.324267-43.201422 96.324267-96.312888 0-53.111467-43.224178-96.312889-96.324267-96.312889h-20.332088c-8.760889 0-15.860622 7.099733-15.860623 15.860622v160.915911c0 8.749511 7.099733 15.849244 15.860623 15.849244z m15.849244-160.915911h4.482844c35.623822 0 64.603022 28.9792 64.603023 64.603023s-28.9792 64.603022-64.603023 64.603022h-4.482844V380.552533z" fill="" /></svg>